HIERARCHY
ROOT hip
{
  OFFSET 0 0 0
  CHANNELS 6 Xposition Yposition Zposition Zrotation Yrotation Xrotation
  JOINT abdomen
  {
    OFFSET 0 20.6881 -0.73152
    CHANNELS 3 Zrotation Xrotation Yrotation
    JOINT chest
    {
      OFFSET 0 11.7043 -0.48768
      CHANNELS 3 Zrotation Xrotation Yrotation
      JOINT neck
      {
        OFFSET 0 22.1894 -2.19456
        CHANNELS 3 Zrotation Xrotation Yrotation
        JOINT head
        {
          OFFSET -0.24384 7.07133 1.2192
          CHANNELS 3 Zrotation Xrotation Yrotation
          JOINT leftEye
          {
            OFFSET 4.14528 8.04674 8.04672
            CHANNELS 3 Zrotation Xrotation Yrotation
            End Site
            {
              OFFSET 1 0 0
            }
          }
          JOINT rightEye
          {
            OFFSET -3.6576 8.04674 8.04672
            CHANNELS 3 Zrotation Xrotation Yrotation
            End Site
            {
              OFFSET 1 0 0
            }
          }
        }
      }
      JOINT rCollar
      {
        OFFSET -2.68224 19.2634 -4.8768
        CHANNELS 3 Zrotation Xrotation Yrotation
        JOINT rShldr
        {
          OFFSET -8.77824 -1.95073 1.46304
          CHANNELS 3 Zrotation Xrotation Yrotation
          JOINT rForeArm
          {
            OFFSET -28.1742 -1.7115 0.48768
            CHANNELS 3 Zrotation Xrotation Yrotation
            JOINT rHand
            {
              OFFSET -22.5879 0.773209 7.07136
              CHANNELS 3 Zrotation Xrotation Yrotation
              JOINT rThumb1
              {
                OFFSET -1.2192 -0.487915 3.41376
                CHANNELS 3 Zrotation Xrotation Yrotation
                JOINT rThumb2
                {
                  OFFSET -3.37035 -0.52449 3.41376
                  CHANNELS 3 Zrotation Xrotation Yrotation
                  End Site
                  {
                    OFFSET -1.78271 -1.18214 1.43049
                  }
                }
              }
              JOINT rIndex1
              {
                OFFSET -7.75947 0.938293 5.60832
                CHANNELS 3 Zrotation Xrotation Yrotation
                JOINT rIndex2
                {
                  OFFSET -2.54057 -0.884171 1.56538
                  CHANNELS 3 Zrotation Xrotation Yrotation
                  End Site
                  {
                    OFFSET -1.62519 -0.234802 1.16502
                  }
                }
              }
              JOINT rMid1
              {
                OFFSET -8.24714 1.18213 3.41376
                CHANNELS 3 Zrotation Xrotation Yrotation
                JOINT rMid2
                {
                  OFFSET -3.10165 -0.590103 1.0647
                  CHANNELS 3 Zrotation Xrotation Yrotation
                  End Site
                  {
                    OFFSET -2.48547 -0.328903 0.83742
                  }
                }
              }
              JOINT rRing1
              {
                OFFSET -8.82822 0.546677 1.51678
                CHANNELS 3 Zrotation Xrotation Yrotation
                JOINT rRing2
                {
                  OFFSET -2.60934 -0.819778 -0.0198488
                  CHANNELS 3 Zrotation Xrotation Yrotation
                  End Site
                  {
                    OFFSET -2.33842 -0.294052 0.168128
                  }
                }
              }
              JOINT rPinky1
              {
                OFFSET -8.27202 -0.0477905 -0.4584
                CHANNELS 3 Zrotation Xrotation Yrotation
                JOINT rPinky2
                {
                  OFFSET -1.82734 -0.647385 -0.700984
                  CHANNELS 3 Zrotation Xrotation Yrotation
                  End Site
                  {
                    OFFSET -1.69225 -0.51767 -0.607171
                  }
                }
              }
            }
          }
        }
      }
      JOINT lCollar
      {
        OFFSET 2.68224 19.2634 -4.8768
        CHANNELS 3 Zrotation Xrotation Yrotation
        JOINT lShldr
        {
          OFFSET 8.77824 -1.95073 1.46304
          CHANNELS 3 Zrotation Xrotation Yrotation
          JOINT lForeArm
          {
            OFFSET 28.1742 -1.7115 0.48768
            CHANNELS 3 Zrotation Xrotation Yrotation
            JOINT lHand
            {
              OFFSET 22.5879 0.773209 7.07136
              CHANNELS 3 Zrotation Xrotation Yrotation
              JOINT lThumb1
              {
                OFFSET 1.2192 -0.487915 3.41376
                CHANNELS 3 Zrotation Xrotation Yrotation
                JOINT lThumb2
                {
                  OFFSET 3.37035 -0.52449 3.41376
                  CHANNELS 3 Zrotation Xrotation Yrotation
                  End Site
                  {
                    OFFSET 1.78271 -1.18214 1.43049
                  }
                }
              }
              JOINT lIndex1
              {
                OFFSET 7.75947 0.938293 5.60832
                CHANNELS 3 Zrotation Xrotation Yrotation
                JOINT lIndex2
                {
                  OFFSET 2.54057 -0.884171 1.56538
                  CHANNELS 3 Zrotation Xrotation Yrotation
                  End Site
                  {
                    OFFSET 1.62519 -0.234802 1.16502
                  }
                }
              }
              JOINT lMid1
              {
                OFFSET 8.24714 1.18213 3.41376
                CHANNELS 3 Zrotation Xrotation Yrotation
                JOINT lMid2
                {
                  OFFSET 3.10165 -0.590103 1.0647
                  CHANNELS 3 Zrotation Xrotation Yrotation
                  End Site
                  {
                    OFFSET 2.48547 -0.328903 0.83742
                  }
                }
              }
              JOINT lRing1
              {
                OFFSET 8.82822 0.546677 1.51678
                CHANNELS 3 Zrotation Xrotation Yrotation
                JOINT lRing2
                {
                  OFFSET 2.60934 -0.819778 -0.0198488
                  CHANNELS 3 Zrotation Xrotation Yrotation
                  End Site
                  {
                    OFFSET 2.33842 -0.294052 0.168128
                  }
                }
              }
              JOINT lPinky1
              {
                OFFSET 8.27202 -0.0477905 -0.4584
                CHANNELS 3 Zrotation Xrotation Yrotation
                JOINT lPinky2
                {
                  OFFSET 1.82734 -0.647385 -0.700984
                  CHANNELS 3 Zrotation Xrotation Yrotation
                  End Site
                  {
                    OFFSET 1.69225 -0.51767 -0.607171
                  }
                }
              }
            }
          }
        }
      }
    }
  }
  JOINT rButtock
  {
    OFFSET -8.77824 4.35084 1.2192
    CHANNELS 3 Zrotation Xrotation Yrotation
    JOINT rThigh
    {
      OFFSET 0 -1.70687 -2.19456
      CHANNELS 3 Zrotation Xrotation Yrotation
      JOINT rShin
      {
        OFFSET 0 -36.8199 0.73152
        CHANNELS 3 Zrotation Xrotation Yrotation
        JOINT rFoot
        {
          OFFSET 0.73152 -45.1104 -5.12064
          CHANNELS 3 Zrotation Xrotation Yrotation
          End Site
          {
            OFFSET -1.1221 -3.69964 12.103
          }
        }
      }
    }
  }
  JOINT lButtock
  {
    OFFSET 8.77824 4.35084 1.2192
    CHANNELS 3 Zrotation Xrotation Yrotation
    JOINT lThigh
    {
      OFFSET 0 -1.70687 -2.19456
      CHANNELS 3 Zrotation Xrotation Yrotation
      JOINT lShin
      {
        OFFSET 0 -36.8199 0.73152
        CHANNELS 3 Zrotation Xrotation Yrotation
        JOINT lFoot
        {
          OFFSET -0.73152 -45.1104 -5.12064
          CHANNELS 3 Zrotation Xrotation Yrotation
          End Site
          {
            OFFSET 1.1221 -3.69964 12.103
          }
        }
      }
    }
  }
}
MOTION
Frames:	5
Frame Time:	0.00833333
35.186499999999995 53.1258 198.5755 6.136409 26.365101 15.021202 -6.780978 5.564239 -129.195449 4.599189 6.359938 132.667194 6.80411 23.360579 79.815597 -41.066146 5.503964 -114.243031 0.420598 0.000968 0.263667 1.902733 0.016069 0.967621 -1.029479 -0.816856 -0.082862 64.319866 -33.853139 76.724996 168.188061 -27.703406 118.247421 161.530129 -23.542001 145.487773 10.442454 -11.350068 -0.10908 -1.787003 -1.951988 -3.623411 -51.519541 40.190101 40.04479 85.155316 -60.833164 38.634365 -140.410985 35.834159 130.035574 4.419767 -0.373902 -3.014265 -72.913389 -72.464466 -89.61157 -149.99917 -3.314731 177.02985 -10.598175 -23.722779 -9.621801 4.462642 -3.286818 0.320471 31.168393 -85.657236 53.616315 167.144577 -37.566022 120.314503 -61.375133 76.675297 -163.403745 131.525451 41.38427 -115.471885 167.130715 -3.947375 -90.520019 120.103131 10.982451 -57.695762 110.42458 35.335374 -91.761875 3.15555 11.021393 0.768649 173.075802 -43.888556 -146.350644 1.622408 17.840645 -0.654793 74.508263 72.886625 -90.134616 158.78998 -20.635704 179.455133 148.147862 29.183182 146.263535 146.422862 27.074149 141.257872 -0.000475 -0.094022 -0.289486 -66.180076 -65.516129 -180.0 -84.215725 -16.248364 -164.137868 -165.4589 24.693616 118.316202 2.739204 -1.1274 2.683929 14.01399 4.375706 92.767912 45.395334 -2.924457 -100.112655 117.310963 -0.092139 -37.845515
35.105 53.2848 198.9436 5.54321 26.463025 14.25726 -6.231226 5.984202 -133.676299 3.824646 6.550707 137.435214 -13.362307 21.837732 -48.109679 34.805672 -18.090678 18.418744 0.518625 0.001194 0.263738 1.915595 0.007859 0.470082 -10.793442 34.715774 11.320903 -105.862926 47.949531 75.565454 -177.042553 0.603774 -160.767234 -9.066128 45.256976 5.219322 -178.960378 -15.121811 88.982471 112.878886 -68.825294 84.517484 156.874083 -69.220454 101.008763 -11.381565 40.09351 6.048701 -125.002782 50.136657 116.098506 -125.179365 59.244936 115.917264 -0.888064 -0.874301 -0.237412 4.763626 38.472165 8.578463 -145.493176 14.749754 -144.161142 -79.331355 -50.684123 -77.140373 128.920956 54.982144 -133.706902 -7.609582 10.406372 -76.527382 70.418163 -80.824047 -29.801099 13.349021 -54.877944 14.437583 7.016058 6.513142 -0.711895 135.667354 -34.931058 -112.382786 -34.946557 -58.619936 1.129492 53.429795 55.321698 -44.886334 39.339189 53.764867 -31.848572 -48.926736 -69.480818 -25.396075 147.224147 -2.428445 178.37741 150.334093 -24.578447 174.82525 -19.023429 63.528518 -14.618323 -7.018459 20.892898 3.368714 -1.540893 0.213891 -1.546114 -62.369877 -65.932219 115.545447 49.472629 -82.586347 136.180876 5.870626 -18.565347 91.997418 -174.280158 76.693698 -5.077255 -125.700401 69.374316 43.262045 64.035714 -3.768343 89.193298 -150.972128 14.289028 153.738243
35.0125 53.480799999999995 199.31449999999998 4.936108 26.389861 13.525717 -4.888552 7.856869 -98.262527 8.15196 2.575553 102.420864 6.601938 23.754426 82.39985 -41.078958 6.503096 -116.958943 0.603332 0.001163 0.220871 1.993893 0.00572 0.328725 -14.858382 42.307021 15.696484 -62.82971 32.213383 39.421854 -175.275869 -32.696973 -159.964343 -7.773748 42.045823 4.773874 7.768517 -8.651102 0.168292 -144.989815 -48.813261 121.941655 -1.660627 0.00174 1.099585 123.257758 -61.061805 63.592115 -34.304993 52.207767 29.521696 -16.983811 40.500384 9.341227 -1.086518 -1.286453 -0.616429 -137.004892 59.643866 152.14041 -149.761283 30.07621 -147.508781 -151.277481 13.619784 -140.202819 -3.335224 -18.111979 3.706876 -79.720648 25.812972 50.223734 -6.37746 20.728657 -103.298273 14.409784 -39.162755 9.863578 68.03352 38.17864 -35.200202 139.754716 -27.963228 -85.813135 100.116032 38.509086 -82.616324 83.246572 49.362402 -59.278149 148.780903 25.397005 -135.130823 -4.365428 -12.427112 2.516277 2.003926 1.796934 -0.439513 -10.642352 -33.441698 2.566815 73.994522 -52.650057 74.718246 18.644303 -44.700706 17.543725 -0.566404 0.484105 -0.860463 -56.063904 -64.133355 -58.80628 29.798942 77.212162 46.511346 -136.907858 56.588541 66.532791 135.086703 72.794501 33.396925 -106.860812 57.851796 0.0 61.424103 20.639895 6.654807 -102.773749 44.013926 21.827108
34.929300000000005 53.711 199.6959 4.221554 26.087455 12.713205 -4.983863 6.797916 -143.619899 2.183602 6.67845 148.379993 6.076973 22.932357 77.489957 -40.411982 2.816642 -113.68343 0.661368 0.001184 0.205192 2.085388 0.007663 0.421039 -10.758672 34.723742 11.295221 -78.163972 39.344054 54.776541 -173.922432 -25.461877 -159.626093 -7.207739 40.400319 4.809786 -170.033216 -6.897855 88.747731 -114.775686 12.945603 54.464512 -153.421392 -18.651872 120.199408 -156.693281 -2.83819 119.075646 -151.809978 13.537921 139.363712 155.260834 -76.652433 120.476195 -0.905083 2.669162 0.557711 13.454486 -33.333421 -2.588311 -144.255015 8.909397 -141.64407 -27.474726 -37.186228 -28.42707 57.940876 -86.644241 80.725225 -115.257188 33.755223 134.11976 22.017296 2.207405 -108.060769 11.897661 -68.082366 19.328763 171.527684 -9.334987 -89.835451 140.374773 8.742155 -73.250805 36.015047 33.421739 -25.877117 -6.762997 5.149616 -2.412406 -1.468311 -6.400442 1.200047 169.919262 -25.743168 -141.818483 1.99779 -1.720444 0.526993 77.296378 77.095985 -89.564418 6.578218 -18.742244 6.877647 151.886051 9.660291 144.888984 -1.794481 0.715637 -1.816404 -53.623187 -64.312008 33.872595 75.768432 -1.81104 -83.274684 118.752223 -40.504214 0.371733 -162.58921 75.665642 -14.32142 -141.114987 66.065471 -0.0 51.00943 43.236261 -79.724845 -78.171559 -51.079022 20.157296
34.8446 53.940200000000004 200.07760000000002 3.372699 25.711604 11.687904 -4.377773 11.547807 -24.459787 6.72117 -8.594778 30.545934 -8.825553 35.82174 -144.17858 33.427266 42.222909 95.0158 0.699679 0.000746 0.122147 2.186311 0.007131 0.373728 -156.968794 -5.483431 162.183051 -175.613964 29.456203 -138.087671 -175.748953 21.302381 123.388807 149.315827 -43.760822 135.751475 -92.083629 36.890432 51.793016 -45.889116 -2.394752 41.308101 1.772276 -4.164458 -0.22242 9.334826 5.577928 0.348135 152.070033 -77.984117 118.362943 -167.356884 -21.190362 140.559604 -145.636307 1.093443 -179.533797 -9.054605 -61.205336 -28.945356 -156.353653 57.130587 -151.541587 -46.655514 -48.32504 -43.169404 -4.723605 -62.017196 13.028248 -96.619279 37.00407 98.79794 -3.370475 22.693759 -104.20431 12.769111 -36.894662 9.668793 -116.19601 -49.656366 -56.634678 9.125291 -65.779334 29.883769 154.971092 -18.40181 -119.661736 174.670147 -32.206066 -118.232836 160.671474 -4.849088 -142.800417 171.741171 -31.209697 -145.591144 75.37949 -72.588199 90.360941 70.929352 82.226404 -90.385723 143.288043 8.711417 142.369283 1.899984 -18.159718 8.911525 1.616938 0.854437 0.814468 -52.079408 -62.054427 -49.044147 45.673796 74.028881 36.975409 -154.091675 37.4221 89.706043 3.796975 -0.103082 3.781902 16.023257 -8.7095 -69.796889 -72.699931 16.244043 6.136837 151.672795 4.481282 -96.674888
